<svg xmlns="http://www.w3.org/2000/svg" version="1.1" xmlns:xlink="http://www.w3.org/1999/xlink" xmlns:svgjs="http://svgjs.dev/svgjs" width="62" height="61"><svg width="62" height="61" overflow="hidden" version="1.1" id="SvgjsSvg1029" sodipodi:docname="favicon.svg" inkscape:version="1.4 (e7c3feb100, 2024-10-09)" xmlns:inkscape="http://www.inkscape.org/namespaces/inkscape" xmlns:sodipodi="http://sodipodi.sourceforge.net/DTD/sodipodi-0.dtd" xmlns="http://www.w3.org/2000/svg" xmlns:svg="http://www.w3.org/2000/svg">
  <defs id="SvgjsDefs1028"></defs>
  <sodipodi:namedview id="SvgjsSodipodi:namedview1027" pagecolor="#ffffff" bordercolor="#cccccc" borderopacity="1" inkscape:showpageshadow="0" inkscape:pageopacity="1" inkscape:pagecheckerboard="0" inkscape:deskcolor="#d1d1d1" inkscape:zoom="1.0347222" inkscape:cx="-42.040268" inkscape:cy="14.979866" inkscape:window-width="1920" inkscape:window-height="1040" inkscape:window-x="0" inkscape:window-y="0" inkscape:window-maximized="1" inkscape:current-layer="g8"></sodipodi:namedview>
  <g id="SvgjsG1026" transform="translate(-682,-345)">
    <rect x="0" y="0" width="1280" height="720" fill="#ffffff" id="SvgjsRect1025"></rect>
    <path d="m 357,364 c 0,-18.778 15.446,-34 34.5,-34 19.054,0 34.5,15.222 34.5,34 0,18.778 -15.446,34 -34.5,34 -19.054,0 -34.5,-15.222 -34.5,-34 z" fill="#ffffff" fill-rule="evenodd" id="SvgjsPath1024"></path>
    <text fill="#ffffff" font-family="DengXian, DengXian_MSFontService, sans-serif" font-weight="700" font-size="21px" transform="translate(374.056,382)" id="SvgjsText1023" svgjs:data="{&quot;leading&quot;:&quot;1.3&quot;}">Lab</text>
    <text fill="#ffffff" font-family="DengXian, DengXian_MSFontService, sans-serif" font-weight="700" font-size="21px" transform="translate(368.423,360)" id="SvgjsText1022" svgjs:data="{&quot;leading&quot;:&quot;1.3&quot;}">Shen</text>
    <path d="m 679,375.5 c 0,-19.054 15.446,-34.5 34.5,-34.5 19.054,0 34.5,15.446 34.5,34.5 0,19.054 -15.446,34.5 -34.5,34.5 -19.054,0 -34.5,-15.446 -34.5,-34.5 z" fill="#ffffff" fill-rule="evenodd" id="SvgjsPath1021"></path>
    <path d="m 682,375.5 c 0,-16.845 13.879,-30.5 31,-30.5 17.121,0 31,13.655 31,30.5 0,16.845 -13.879,30.5 -31,30.5 -17.121,0 -31,-13.655 -31,-30.5 z" fill-rule="evenodd" id="SvgjsPath1020"></path>
    <text fill="#ffffff" font-family="DengXian, DengXian_MSFontService, sans-serif" font-weight="700" font-size="21px" transform="translate(695.053,393)" id="SvgjsText1019" svgjs:data="{&quot;leading&quot;:&quot;1.3&quot;}">.info</text>
    <text fill="#ffffff" font-family="DengXian, DengXian_MSFontService, sans-serif" font-weight="700" font-size="21px" transform="translate(688.421,371)" id="SvgjsText1018" svgjs:data="{&quot;leading&quot;:&quot;1.3&quot;}">mBio</text>
    <path d="m 696.369,374.994 -9.027,22.96 5.583,-24.031 z" fill="#ff9900" fill-rule="evenodd" id="SvgjsPath1017"></path>
    <text fill="#ff9900" font-family="DengXian, DengXian_MSFontService, sans-serif" font-weight="700" font-size="27px" transform="rotate(7.121797,-2664.7544,5654.7527)" id="SvgjsText1016" svgjs:data="{&quot;leading&quot;:&quot;1.3&quot;}">L</text>
    <text fill="#ffffff" font-family="Arial, Arial_MSFontService, sans-serif" font-weight="700" font-size="24px" transform="translate(572.952,221)" id="SvgjsText1015" svgjs:data="{&quot;leading&quot;:&quot;1.3&quot;}">Shen Lab @ CQMU</text>
  </g>
</svg><style>@media (prefers-color-scheme: light) { :root { filter: none; } }
@media (prefers-color-scheme: dark) { :root { filter: none; } }
</style></svg>