<?xml version="1.0" encoding="UTF-8" standalone="no"?>
<svg
   width="69"
   height="69"
   overflow="hidden"
   version="1.1"
   id="svg8"
   sodipodi:docname="favicon.svg"
   inkscape:version="1.4 (e7c3feb100, 2024-10-09)"
   xmlns:inkscape="http://www.inkscape.org/namespaces/inkscape"
   xmlns:sodipodi="http://sodipodi.sourceforge.net/DTD/sodipodi-0.dtd"
   xmlns="http://www.w3.org/2000/svg"
   xmlns:svg="http://www.w3.org/2000/svg">
  <defs
     id="defs8" />
  <sodipodi:namedview
     id="namedview8"
     pagecolor="#ffffff"
     bordercolor="#cccccc"
     borderopacity="1"
     inkscape:showpageshadow="0"
     inkscape:pageopacity="1"
     inkscape:pagecheckerboard="0"
     inkscape:deskcolor="#d1d1d1"
     inkscape:zoom="4.55"
     inkscape:cx="103.62637"
     inkscape:cy="37.032967"
     inkscape:window-width="1920"
     inkscape:window-height="1114"
     inkscape:window-x="0"
     inkscape:window-y="0"
     inkscape:window-maximized="1"
     inkscape:current-layer="g8" />
  <g
     id="g8"
     transform="translate(-649,-324)">
    <path
       d="m 649,358.5 c 0,-19.054 15.446,-34.5 34.5,-34.5 19.054,0 34.5,15.446 34.5,34.5 0,19.054 -15.446,34.5 -34.5,34.5 -19.054,0 -34.5,-15.446 -34.5,-34.5 z"
       fill="#ffffff"
       fill-rule="evenodd"
       id="path4" />
    <path
       d="m 653,359 c 0,-17.121 13.879,-31 31,-31 17.121,0 31,13.879 31,31 0,17.121 -13.879,31 -31,31 -17.121,0 -31,-13.879 -31,-31 z"
       fill-rule="evenodd"
       id="path5" />
    <text
       fill="#ffffff"
       font-family="DengXian, DengXian_MSFontService, sans-serif"
       font-weight="700"
       font-size="21px"
       transform="translate(665.58,377)"
       id="text5">.info</text>
    <text
       fill="#ffffff"
       font-family="DengXian, DengXian_MSFontService, sans-serif"
       font-weight="700"
       font-size="21px"
       transform="translate(658.948,354)"
       id="text6">mBio</text>
    <path
       d="m 666.896,358.724 -9.027,22.961 5.583,-24.031 z"
       fill="#ff9900"
       fill-rule="evenodd"
       id="path6" />
    <text
       fill="#ff9900"
       font-family="DengXian, DengXian_MSFontService, sans-serif"
       font-weight="700"
       font-size="27px"
       transform="rotate(7.121797,-2550.9343,5409.9441)"
       id="text7">L</text>
  </g>
</svg>
